<svg xmlns="http://www.w3.org/2000/svg" viewBox="0 0 512 512">
  <circle cx="256" cy="256" r="256" fill="#181717"/>
  <path d="M256 70c-102.5 0-186 83.5-186 186 0 82.1 53.3 151.8 127.2 176.4 9.3 1.7 12.7-4 12.7-9 0-4.4-.2-19.3-.2-35.7-51.8 11.2-62.6-22.4-62.6-22.4-8.3-21.7-20.6-27.5-20.6-27.5-17-11.5 1.3-11.3 1.3-11.3 18.8 1.3 28.7 19.3 28.7 19.3 16.6 28.4 43.5 20.2 54.1 15.4 1.7-12 6.5-20.2 11.8-24.9-41.3-4.7-84.7-20.6-84.7-91.9 0-20.3 7.3-36.9 19.2-49.9-1.9-4.7-8.3-23.6 1.8-49.2 0 0 15.6-5 51.1 19.1 14.8-4.1 30.7-6.2 46.5-6.3 15.8.1 31.7 2.2 46.5 6.3 35.5-24.1 51.1-19.1 51.1-19.1 10.1 25.6 3.8 44.5 1.8 49.2 11.9 13 19.1 29.6 19.1 49.9 0 71.4-43.5 87.1-84.9 91.7 6.7 5.8 12.6 17.1 12.6 34.4 0 24.9-.2 45-.2 51.1 0 5 3.4 10.8 12.8 9C388.7 407.6 442 338 442 256c0-102.5-83.5-186-186-186z" fill="white"/>
</svg>
