<svg viewBox="0 0 24 24" fill="none" xmlns="http://www.w3.org/2000/svg">
  <path d="M16.405 5.501c-.115 0-.193.014-.274.033v.013h.014c.054.104.146.18.214.273.054.107.1.214.154.32l.014-.015c.094-.066.14-.172.14-.333-.04-.047-.046-.094-.08-.14-.04-.067-.126-.1-.18-.151zM18.872 8.5c-.274 0-.44.036-.612.133-.034.014-.107.014-.107.06 0 .027.014.041.034.054.107.1.26.16.407.239.114.067.234.16.33.254.054.054.094.134.16.174v-.013c-.04-.054-.047-.134-.08-.201-.04-.047-.094-.08-.134-.133-.114-.133-.27-.2-.404-.334-.107-.094-.107-.21-.21-.26-.05-.027-.1-.027-.16-.027v-.007zM9.33 18.5c-.107.014-.214.04-.32.054-.107.027-.214.054-.32.094-.054.027-.107.054-.16.094-.027.027-.054.067-.027.107.014.027.054.027.08.04.107.054.214.134.334.174.107.027.214.027.32.027.054-.027.107-.054.16-.094.054-.027.107-.067.134-.133.027-.054-.027-.107-.067-.134-.067-.067-.16-.094-.234-.174-.054-.054-.107-.134-.2-.161v.006z" fill="#4479a1"/>
  <path d="M5.5 9c-.5 0-1 .2-1.3.6-.2.3-.2.7 0 1 .3.4.8.6 1.3.6s1-.2 1.3-.6c.2-.3.2-.7 0-1C6.5 9.2 6 9 5.5 9z" fill="#4479a1"/>
  <path d="M2 6c0-1.1.9-2 2-2h16c1.1 0 2 .9 2 2v12c0 1.1-.9 2-2 2H4c-1.1 0-2-.9-2-2V6zm18 0H4v12h16V6z" fill="#4479a1"/>
  <path d="M7 8c.6 0 1 .4 1 1s-.4 1-1 1-1-.4-1-1 .4-1 1-1zm10 0c.6 0 1 .4 1 1s-.4 1-1 1-1-.4-1-1 .4-1 1-1z" fill="#4479a1"/>
</svg>
