<svg preserveAspectRatio="none" width="100%" height="100%" overflow="visible" style="display: block;" viewBox="0 0 9 33" fill="none" xmlns="http://www.w3.org/2000/svg">
<path id="icon" d="M0.260796 28.2007C-0.0869319 28.5484 -0.0869319 29.1122 0.260796 29.4599L2.77926 31.9784C2.8662 32.0653 2.95988 32.1414 3.05863 32.2066C3.74986 32.663 4.68921 32.5869 5.29773 31.9784L7.81621 29.4599C8.16394 29.1122 8.16394 28.5484 7.81621 28.2007C7.46848 27.853 6.9047 27.853 6.55697 28.2007L4.97366 29.784L4.97366 0.890412C4.97366 0.398651 4.57501 0 4.08324 0C3.59148 0 3.19283 0.398652 3.19283 0.890412L3.19283 29.8735L1.52003 28.2007C1.1723 27.853 0.608524 27.853 0.260796 28.2007Z" fill="var(--fill-0, black)"/>
</svg>
