<svg preserveAspectRatio="none" width="100%" height="100%" overflow="visible" style="display: block;" viewBox="0 0 17 18" fill="none" xmlns="http://www.w3.org/2000/svg">
<path id="icon" fill-rule="evenodd" clip-rule="evenodd" d="M8.18159 1.63632C4.78715 1.63632 1.63632 3.87313 1.63632 7.36343C1.63632 8.64826 1.95411 9.5961 2.52199 10.3541C3.10084 11.1268 3.99054 11.7702 5.24953 12.3466L5.91741 12.6524L5.68512 13.3493C5.35181 14.3492 4.7862 15.2677 4.21479 16.0231C6.1891 15.4029 8.76798 14.4435 10.5913 13.2279C12.3993 12.0226 13.4152 11.074 13.9897 10.1902C14.5434 9.33839 14.7269 8.48511 14.7269 7.36343C14.7269 3.87313 11.576 1.63632 8.18159 1.63632ZM0 7.36343C0 2.67214 4.21259 0 8.18159 0C12.1506 0 16.3632 2.67214 16.3632 7.36343C16.3632 8.69622 16.1375 9.88833 15.3617 11.0819C14.6067 12.2435 13.3727 13.3403 11.499 14.5894C9.06365 16.213 5.53557 17.3639 3.51622 17.9406C2.85263 18.1302 2.32402 17.7408 2.09647 17.3352C1.87234 16.9357 1.81702 16.3185 2.24514 15.8407C2.81806 15.2012 3.44611 14.3777 3.86675 13.4891C2.78202 12.9139 1.87625 12.2213 1.21242 11.3352C0.39914 10.2497 0 8.94214 0 7.36343Z" fill="var(--fill-0, black)"/>
</svg>
